<svg width="32" height="32" viewBox="0 0 32 32" fill="none" xmlns="http://www.w3.org/2000/svg">
<path id="Vector" d="M16 0C7.18269 0 0 7.18269 0 16C0 24.8173 7.18269 32 16 32C24.8173 32 32 24.8173 32 16C32 7.18269 24.8173 0 16 0ZM16 2.46154C23.4904 2.46154 29.5385 8.50962 29.5385 16C29.5385 23.4904 23.4904 29.5385 16 29.5385C8.50962 29.5385 2.46154 23.4904 2.46154 16C2.46154 8.50962 8.50962 2.46154 16 2.46154ZM14.7692 7.38462V14.7692H7.38462V17.2308H14.7692V24.6154H17.2308V17.2308H24.6154V14.7692H17.2308V7.38462H14.7692Z" fill="#302F2F"/>
</svg>
