<svg width="26" height="26" viewBox="0 0 26 26" fill="none" xmlns="http://www.w3.org/2000/svg">
<path id="Vector" d="M16.9531 0C11.9922 0 7.95312 4.03906 7.95312 9C7.95312 11.1172 8.71875 13.0469 9.95312 14.5859L0 24.5391L1.40625 25.9609L11.3672 16C12.9062 17.2344 14.8359 18 16.9531 18C21.9141 18 25.9531 13.9609 25.9531 9C25.9531 4.03906 21.9141 0 16.9531 0ZM16.9531 2C20.8281 2 23.9531 5.125 23.9531 9C23.9531 12.875 20.8281 16 16.9531 16C13.0781 16 9.95312 12.875 9.95312 9C9.95312 5.125 13.0781 2 16.9531 2Z" fill="black"/>
</svg>
